<mxfile modified="2019-12-05T12:03:22.522Z" host="www.draw.io" agent="Mozilla/5.0 (Macintosh; Intel Mac OS X 10_12_6) AppleWebKit/537.36 (KHTML, like Gecko) Chrome/78.0.3904.70 Safari/537.36" etag="yGWqyqehtOZmKQQFkWUK" version="12.3.5" type="github" pages="1">
  <diagram id="Ht1M8jgEwFfnCIfOTk4-" name="Page-1">
    <mxGraphModel dx="1261" dy="817" grid="1" gridSize="10" guides="1" tooltips="1" connect="1" arrows="1" fold="1" page="1" pageScale="1" pageWidth="827" pageHeight="1169" math="0" shadow="0">
      <root>
        <mxCell id="0"/>
        <mxCell id="1" parent="0"/>
        <mxCell id="UEzPUAAOIrF-is8g5C7q-1" value="NIA assets" style="points=[[0,0],[0.25,0],[0.5,0],[0.75,0],[1,0],[1,0.25],[1,0.5],[1,0.75],[1,1],[0.75,1],[0.5,1],[0.25,1],[0,1],[0,0.75],[0,0.5],[0,0.25]];outlineConnect=0;gradientColor=none;html=1;whiteSpace=wrap;fontSize=12;fontStyle=0;shape=mxgraph.aws4.group;grIcon=mxgraph.aws4.group_corporate_data_center;strokeColor=#5A6C86;fillColor=none;verticalAlign=top;align=left;spacingLeft=30;fontColor=#5A6C86;dashed=0;" parent="1" vertex="1">
          <mxGeometry x="20" y="175" width="800" height="875" as="geometry"/>
        </mxCell>
        <mxCell id="e9keN2KxK9KYygScjkE0-43" value="" style="whiteSpace=wrap;html=1;dashed=0;fontColor=#AAB7B8;fontStyle=0;align=left;verticalAlign=top;strokeColor=#000000;fillColor=none;gradientColor=none;spacingLeft=30;" vertex="1" parent="1">
          <mxGeometry x="536" y="487" width="250" height="219" as="geometry"/>
        </mxCell>
        <mxCell id="e9keN2KxK9KYygScjkE0-11" value="" style="whiteSpace=wrap;html=1;dashed=0;fontColor=#AAB7B8;fontStyle=0;align=left;verticalAlign=top;strokeColor=#000000;fillColor=none;gradientColor=none;spacingLeft=30;" vertex="1" parent="1">
          <mxGeometry x="190" y="741" width="250" height="217" as="geometry"/>
        </mxCell>
        <mxCell id="UEzPUAAOIrF-is8g5C7q-5" value="" style="whiteSpace=wrap;html=1;dashed=0;fontColor=#AAB7B8;fontStyle=0;align=left;verticalAlign=top;strokeColor=#000000;fillColor=none;gradientColor=none;spacingLeft=30;" parent="1" vertex="1">
          <mxGeometry x="190" y="239" width="250" height="219" as="geometry"/>
        </mxCell>
        <mxCell id="UEzPUAAOIrF-is8g5C7q-25" value="" style="edgeStyle=orthogonalEdgeStyle;rounded=0;orthogonalLoop=1;jettySize=auto;html=1;strokeColor=#545B64;strokeWidth=2;endFill=0;endArrow=open;startArrow=openThin;startFill=0;" parent="1" source="e9keN2KxK9KYygScjkE0-8" target="UEzPUAAOIrF-is8g5C7q-8" edge="1">
          <mxGeometry relative="1" as="geometry">
            <mxPoint x="128" y="367" as="sourcePoint"/>
            <Array as="points">
              <mxPoint x="160" y="623"/>
              <mxPoint x="160" y="367"/>
            </Array>
          </mxGeometry>
        </mxCell>
        <mxCell id="UEzPUAAOIrF-is8g5C7q-26" value="" style="edgeStyle=orthogonalEdgeStyle;rounded=0;orthogonalLoop=1;jettySize=auto;html=1;strokeColor=#545B64;strokeWidth=2;endFill=0;endArrow=open;startArrow=none;" parent="1" source="e9keN2KxK9KYygScjkE0-8" target="e9keN2KxK9KYygScjkE0-10" edge="1">
          <mxGeometry relative="1" as="geometry">
            <mxPoint x="116.41011523687598" y="623.5" as="sourcePoint"/>
            <Array as="points">
              <mxPoint x="160" y="623"/>
              <mxPoint x="160" y="868"/>
            </Array>
          </mxGeometry>
        </mxCell>
        <mxCell id="UEzPUAAOIrF-is8g5C7q-34" style="edgeStyle=orthogonalEdgeStyle;rounded=0;orthogonalLoop=1;jettySize=auto;html=1;strokeColor=#545B64;strokeWidth=2;endFill=0;endArrow=open;startArrow=none;" parent="1" target="UEzPUAAOIrF-is8g5C7q-18" edge="1">
          <mxGeometry relative="1" as="geometry">
            <mxPoint x="1065.6204481792715" y="987.1666666666667" as="sourcePoint"/>
          </mxGeometry>
        </mxCell>
        <mxCell id="-QjtrjUzRDEMRZ5MF8oH-9" value="1" style="rounded=1;whiteSpace=wrap;html=1;fillColor=#007CBD;strokeColor=none;fontColor=#FFFFFF;fontStyle=1;fontSize=22;" parent="1" vertex="1">
          <mxGeometry x="392.5" y="247" width="40" height="38" as="geometry"/>
        </mxCell>
        <mxCell id="-QjtrjUzRDEMRZ5MF8oH-47" value="Tranwall app migration plan for TMB and GTB" style="text;html=1;resizable=0;points=[];autosize=1;align=left;verticalAlign=top;spacingTop=-4;fontSize=30;fontStyle=1" parent="1" vertex="1">
          <mxGeometry x="12" y="65.5" width="670" height="40" as="geometry"/>
        </mxCell>
        <mxCell id="-QjtrjUzRDEMRZ5MF8oH-48" value="Implementation architecture" style="text;html=1;resizable=0;points=[];autosize=1;align=left;verticalAlign=top;spacingTop=-4;fontSize=16" parent="1" vertex="1">
          <mxGeometry x="12" y="115.5" width="210" height="20" as="geometry"/>
        </mxCell>
        <mxCell id="SCVMTBWpLvtzJIhz15lM-1" value="" style="line;strokeWidth=2;html=1;fontSize=14;" parent="1" vertex="1">
          <mxGeometry x="8" y="140.5" width="1060" height="10" as="geometry"/>
        </mxCell>
        <mxCell id="7OVz4w7n9kzEPWy-4BBC-3" value="" style="rounded=0;whiteSpace=wrap;html=1;fillColor=#EAEDED;fontSize=22;fontColor=#FFFFFF;strokeColor=none;labelBackgroundColor=none;" parent="1" vertex="1">
          <mxGeometry x="1106.5" y="52" width="539" height="969" as="geometry"/>
        </mxCell>
        <mxCell id="7OVz4w7n9kzEPWy-4BBC-4" value="1" style="rounded=1;whiteSpace=wrap;html=1;fillColor=#007CBD;strokeColor=none;fontColor=#FFFFFF;fontStyle=1;fontSize=22;labelBackgroundColor=none;" parent="1" vertex="1">
          <mxGeometry x="1124.5" y="64" width="40" height="38" as="geometry"/>
        </mxCell>
        <mxCell id="7OVz4w7n9kzEPWy-4BBC-5" value="2" style="rounded=1;whiteSpace=wrap;html=1;fillColor=#007CBD;strokeColor=none;fontColor=#FFFFFF;fontStyle=1;fontSize=22;labelBackgroundColor=none;" parent="1" vertex="1">
          <mxGeometry x="1123" y="186" width="40" height="38" as="geometry"/>
        </mxCell>
        <mxCell id="7OVz4w7n9kzEPWy-4BBC-6" value="3" style="rounded=1;whiteSpace=wrap;html=1;fillColor=#007CBD;strokeColor=none;fontColor=#FFFFFF;fontStyle=1;fontSize=22;labelBackgroundColor=none;" parent="1" vertex="1">
          <mxGeometry x="1123" y="306" width="40" height="38" as="geometry"/>
        </mxCell>
        <mxCell id="7OVz4w7n9kzEPWy-4BBC-7" value="4" style="rounded=1;whiteSpace=wrap;html=1;fillColor=#007CBD;strokeColor=none;fontColor=#FFFFFF;fontStyle=1;fontSize=22;labelBackgroundColor=none;" parent="1" vertex="1">
          <mxGeometry x="1123" y="420" width="40" height="38" as="geometry"/>
        </mxCell>
        <mxCell id="7OVz4w7n9kzEPWy-4BBC-8" value="5" style="rounded=1;whiteSpace=wrap;html=1;fillColor=#007CBD;strokeColor=none;fontColor=#FFFFFF;fontStyle=1;fontSize=22;labelBackgroundColor=none;" parent="1" vertex="1">
          <mxGeometry x="1124.5" y="537" width="40" height="38" as="geometry"/>
        </mxCell>
        <mxCell id="7OVz4w7n9kzEPWy-4BBC-9" value="6" style="rounded=1;whiteSpace=wrap;html=1;fillColor=#007CBD;strokeColor=none;fontColor=#FFFFFF;fontStyle=1;fontSize=22;labelBackgroundColor=none;" parent="1" vertex="1">
          <mxGeometry x="1125.5" y="652" width="40" height="38" as="geometry"/>
        </mxCell>
        <mxCell id="7OVz4w7n9kzEPWy-4BBC-10" value="7" style="rounded=1;whiteSpace=wrap;html=1;fillColor=#007CBD;strokeColor=none;fontColor=#FFFFFF;fontStyle=1;fontSize=22;labelBackgroundColor=none;" parent="1" vertex="1">
          <mxGeometry x="1125" y="768" width="40" height="38" as="geometry"/>
        </mxCell>
        <mxCell id="7OVz4w7n9kzEPWy-4BBC-11" value="8" style="rounded=1;whiteSpace=wrap;html=1;fillColor=#007CBD;strokeColor=none;fontColor=#FFFFFF;fontStyle=1;fontSize=22;labelBackgroundColor=none;" parent="1" vertex="1">
          <mxGeometry x="1125.5" y="886" width="40" height="38" as="geometry"/>
        </mxCell>
        <mxCell id="7OVz4w7n9kzEPWy-4BBC-13" value="1" style="text;html=1;align=left;verticalAlign=top;spacingTop=-4;fontSize=14;labelBackgroundColor=none;whiteSpace=wrap;" parent="1" vertex="1">
          <mxGeometry x="1176" y="63.5" width="449" height="118" as="geometry"/>
        </mxCell>
        <mxCell id="7OVz4w7n9kzEPWy-4BBC-14" value="&lt;span&gt;2&lt;/span&gt;" style="text;html=1;align=left;verticalAlign=top;spacingTop=-4;fontSize=14;labelBackgroundColor=none;whiteSpace=wrap;" parent="1" vertex="1">
          <mxGeometry x="1175" y="186.5" width="450" height="115" as="geometry"/>
        </mxCell>
        <mxCell id="7OVz4w7n9kzEPWy-4BBC-15" value="3" style="text;html=1;align=left;verticalAlign=top;spacingTop=-4;fontSize=14;labelBackgroundColor=none;whiteSpace=wrap;" parent="1" vertex="1">
          <mxGeometry x="1175" y="304.5" width="450" height="117" as="geometry"/>
        </mxCell>
        <mxCell id="7OVz4w7n9kzEPWy-4BBC-16" value="&lt;span&gt;4&lt;/span&gt;" style="text;html=1;align=left;verticalAlign=top;spacingTop=-4;fontSize=14;labelBackgroundColor=none;whiteSpace=wrap;" parent="1" vertex="1">
          <mxGeometry x="1175" y="420.5" width="450" height="121" as="geometry"/>
        </mxCell>
        <mxCell id="7OVz4w7n9kzEPWy-4BBC-17" value="&lt;span&gt;5&lt;/span&gt;" style="text;html=1;align=left;verticalAlign=top;spacingTop=-4;fontSize=14;labelBackgroundColor=none;whiteSpace=wrap;" parent="1" vertex="1">
          <mxGeometry x="1176" y="537.5" width="449" height="114" as="geometry"/>
        </mxCell>
        <mxCell id="7OVz4w7n9kzEPWy-4BBC-18" value="&lt;span&gt;6&lt;/span&gt;" style="text;html=1;align=left;verticalAlign=top;spacingTop=-4;fontSize=14;labelBackgroundColor=none;whiteSpace=wrap;" parent="1" vertex="1">
          <mxGeometry x="1176" y="653.5" width="450" height="118" as="geometry"/>
        </mxCell>
        <mxCell id="7OVz4w7n9kzEPWy-4BBC-19" value="&lt;span&gt;7&lt;/span&gt;" style="text;html=1;align=left;verticalAlign=top;spacingTop=-4;fontSize=14;labelBackgroundColor=none;whiteSpace=wrap;" parent="1" vertex="1">
          <mxGeometry x="1176" y="768.5" width="449" height="113" as="geometry"/>
        </mxCell>
        <mxCell id="7OVz4w7n9kzEPWy-4BBC-20" value="&lt;span&gt;8&lt;/span&gt;" style="text;html=1;align=left;verticalAlign=top;spacingTop=-4;fontSize=14;labelBackgroundColor=none;whiteSpace=wrap;" parent="1" vertex="1">
          <mxGeometry x="1176" y="887.5" width="449" height="124" as="geometry"/>
        </mxCell>
        <mxCell id="UEzPUAAOIrF-is8g5C7q-8" value="Issuer &lt;br&gt;API" style="outlineConnect=0;fontColor=#232F3E;gradientColor=none;fillColor=#000000;strokeColor=none;dashed=0;verticalLabelPosition=bottom;verticalAlign=top;align=center;html=1;fontSize=12;fontStyle=0;aspect=fixed;pointerEvents=1;shape=mxgraph.aws4.iot_analytics_channel;" parent="1" vertex="1">
          <mxGeometry x="216" y="340.99999999999983" width="60" height="72" as="geometry"/>
        </mxCell>
        <mxCell id="UEzPUAAOIrF-is8g5C7q-9" value="AWS IoT SiteWise&lt;br&gt;Connector&lt;br&gt;" style="outlineConnect=0;fontColor=#232F3E;gradientColor=#000000;gradientDirection=north;fillColor=#666666;strokeColor=#FF0000;dashed=0;verticalLabelPosition=bottom;verticalAlign=top;align=center;html=1;fontSize=12;fontStyle=0;aspect=fixed;shape=mxgraph.aws4.resourceIcon;resIcon=mxgraph.aws4.iot_sitewise;shadow=0;spacing=5;" parent="1" vertex="1">
          <mxGeometry x="620" y="546.5" width="78" height="78" as="geometry"/>
        </mxCell>
        <mxCell id="UEzPUAAOIrF-is8g5C7q-10" value="2" style="rounded=1;whiteSpace=wrap;html=1;fillColor=#007CBD;strokeColor=none;fontColor=#FFFFFF;fontStyle=1;fontSize=22;" parent="1" vertex="1">
          <mxGeometry x="392.5" y="495.5" width="40" height="38" as="geometry"/>
        </mxCell>
        <mxCell id="UEzPUAAOIrF-is8g5C7q-18" value="Amazon ECR" style="outlineConnect=0;fontColor=#232F3E;gradientColor=#F78E04;gradientDirection=north;fillColor=#D05C17;strokeColor=#ffffff;dashed=0;verticalLabelPosition=bottom;verticalAlign=top;align=center;html=1;fontSize=12;fontStyle=0;aspect=fixed;shape=mxgraph.aws4.resourceIcon;resIcon=mxgraph.aws4.ecr;" parent="1" vertex="1">
          <mxGeometry x="989.9999999999997" y="806" width="78" height="78" as="geometry"/>
        </mxCell>
        <mxCell id="UEzPUAAOIrF-is8g5C7q-19" value="3" style="rounded=1;whiteSpace=wrap;html=1;fillColor=#007CBD;strokeColor=none;fontColor=#FFFFFF;fontStyle=1;fontSize=22;" parent="1" vertex="1">
          <mxGeometry x="391.5" y="749.5" width="40" height="38" as="geometry"/>
        </mxCell>
        <mxCell id="UEzPUAAOIrF-is8g5C7q-20" value="4" style="rounded=1;whiteSpace=wrap;html=1;fillColor=#007CBD;strokeColor=none;fontColor=#FFFFFF;fontStyle=1;fontSize=22;" parent="1" vertex="1">
          <mxGeometry x="734.5" y="499.5" width="40" height="38" as="geometry"/>
        </mxCell>
        <mxCell id="UEzPUAAOIrF-is8g5C7q-21" value="5" style="rounded=1;whiteSpace=wrap;html=1;fillColor=#007CBD;strokeColor=none;fontColor=#FFFFFF;fontStyle=1;fontSize=22;" parent="1" vertex="1">
          <mxGeometry x="885.5" y="33" width="40" height="38" as="geometry"/>
        </mxCell>
        <mxCell id="UEzPUAAOIrF-is8g5C7q-22" value="6" style="rounded=1;whiteSpace=wrap;html=1;fillColor=#007CBD;strokeColor=none;fontColor=#FFFFFF;fontStyle=1;fontSize=22;" parent="1" vertex="1">
          <mxGeometry x="701.5" y="87.5" width="40" height="38" as="geometry"/>
        </mxCell>
        <mxCell id="UEzPUAAOIrF-is8g5C7q-23" value="7" style="rounded=1;whiteSpace=wrap;html=1;fillColor=#007CBD;strokeColor=none;fontColor=#FFFFFF;fontStyle=1;fontSize=22;" parent="1" vertex="1">
          <mxGeometry x="787" y="87" width="40" height="38" as="geometry"/>
        </mxCell>
        <mxCell id="UEzPUAAOIrF-is8g5C7q-24" value="8" style="rounded=1;whiteSpace=wrap;html=1;fillColor=#007CBD;strokeColor=none;fontColor=#FFFFFF;fontStyle=1;fontSize=22;" parent="1" vertex="1">
          <mxGeometry x="875.5" y="87.5" width="40" height="38" as="geometry"/>
        </mxCell>
        <mxCell id="e9keN2KxK9KYygScjkE0-7" value="&lt;span style=&quot;text-align: left&quot;&gt;Tranwall Core Server&lt;/span&gt;&lt;br style=&quot;text-align: left&quot;&gt;&lt;span style=&quot;text-align: left&quot;&gt;TMB VM&lt;/span&gt;" style="outlineConnect=0;fontColor=#232F3E;gradientColor=#FF0000;gradientDirection=north;fillColor=#333333;strokeColor=#ffffff;dashed=0;verticalLabelPosition=middle;verticalAlign=middle;align=left;html=1;fontSize=12;fontStyle=0;aspect=fixed;shape=mxgraph.aws4.resourceIcon;resIcon=mxgraph.aws4.compute;labelPosition=right;spacing=5;" vertex="1" parent="1">
          <mxGeometry x="190" y="487" width="40" height="40" as="geometry"/>
        </mxCell>
        <mxCell id="e9keN2KxK9KYygScjkE0-8" value="NIA feeder" style="outlineConnect=0;fontColor=#232F3E;gradientColor=#FF6666;gradientDirection=north;fillColor=#0000CC;strokeColor=#ffffff;dashed=0;verticalLabelPosition=bottom;verticalAlign=top;align=center;html=1;fontSize=12;fontStyle=0;aspect=fixed;shape=mxgraph.aws4.resourceIcon;resIcon=mxgraph.aws4.application_integration;" vertex="1" parent="1">
          <mxGeometry x="50" y="583.5" width="78" height="78" as="geometry"/>
        </mxCell>
        <mxCell id="e9keN2KxK9KYygScjkE0-10" value="Issuer&lt;br&gt;API" style="outlineConnect=0;fontColor=#232F3E;gradientColor=none;fillColor=#000000;strokeColor=none;dashed=0;verticalLabelPosition=bottom;verticalAlign=top;align=center;html=1;fontSize=12;fontStyle=0;aspect=fixed;pointerEvents=1;shape=mxgraph.aws4.iot_analytics_channel;" vertex="1" parent="1">
          <mxGeometry x="216" y="845.4999999999998" width="60" height="72" as="geometry"/>
        </mxCell>
        <mxCell id="e9keN2KxK9KYygScjkE0-12" value="&lt;span style=&quot;text-align: left&quot;&gt;Tranwall Core server&lt;/span&gt;&lt;br style=&quot;text-align: left&quot;&gt;&lt;span style=&quot;text-align: left&quot;&gt;GTB VM&lt;/span&gt;" style="outlineConnect=0;fontColor=#232F3E;gradientColor=#FF8000;gradientDirection=north;fillColor=#FFFF00;strokeColor=#ffffff;dashed=0;verticalLabelPosition=middle;verticalAlign=middle;align=left;html=1;fontSize=12;fontStyle=0;aspect=fixed;shape=mxgraph.aws4.resourceIcon;resIcon=mxgraph.aws4.compute;labelPosition=right;spacing=5;shadow=0;" vertex="1" parent="1">
          <mxGeometry x="191" y="742" width="40" height="40" as="geometry"/>
        </mxCell>
        <mxCell id="e9keN2KxK9KYygScjkE0-15" value="Tranwall &lt;br&gt;Processor" style="outlineConnect=0;fontColor=#232F3E;gradientColor=#000000;gradientDirection=north;fillColor=#666666;strokeColor=#FF0000;dashed=0;verticalLabelPosition=bottom;verticalAlign=top;align=center;html=1;fontSize=12;fontStyle=0;aspect=fixed;shape=mxgraph.aws4.resourceIcon;resIcon=mxgraph.aws4.chime;shadow=0;" vertex="1" parent="1">
          <mxGeometry x="276" y="803" width="78" height="78" as="geometry"/>
        </mxCell>
        <mxCell id="e9keN2KxK9KYygScjkE0-17" value="Issuer &lt;br&gt;Mobile API" style="outlineConnect=0;fontColor=#232F3E;gradientColor=none;fillColor=#000000;strokeColor=none;dashed=0;verticalLabelPosition=bottom;verticalAlign=top;align=center;html=1;fontSize=12;fontStyle=0;aspect=fixed;pointerEvents=1;shape=mxgraph.aws4.iot_analytics_channel;flipV=0;flipH=1;" vertex="1" parent="1">
          <mxGeometry x="354" y="845.4999999999998" width="60" height="72" as="geometry"/>
        </mxCell>
        <mxCell id="e9keN2KxK9KYygScjkE0-18" value="Tranwall &lt;br&gt;Processor" style="outlineConnect=0;fontColor=#232F3E;gradientColor=#000000;gradientDirection=north;fillColor=#666666;strokeColor=#FF0000;dashed=0;verticalLabelPosition=bottom;verticalAlign=top;align=center;html=1;fontSize=12;fontStyle=0;aspect=fixed;shape=mxgraph.aws4.resourceIcon;resIcon=mxgraph.aws4.chime;shadow=0;" vertex="1" parent="1">
          <mxGeometry x="276" y="299" width="78" height="78" as="geometry"/>
        </mxCell>
        <mxCell id="e9keN2KxK9KYygScjkE0-19" value="Java&lt;br&gt;RMI" style="outlineConnect=0;fontColor=#232F3E;gradientColor=none;fillColor=#000000;strokeColor=none;dashed=0;verticalLabelPosition=bottom;verticalAlign=top;align=center;html=1;fontSize=12;fontStyle=0;aspect=fixed;pointerEvents=1;shape=mxgraph.aws4.iot_analytics_channel;flipV=0;flipH=1;" vertex="1" parent="1">
          <mxGeometry x="354" y="340.9999999999998" width="60" height="72" as="geometry"/>
        </mxCell>
        <mxCell id="e9keN2KxK9KYygScjkE0-22" value="" style="edgeStyle=orthogonalEdgeStyle;rounded=0;orthogonalLoop=1;jettySize=auto;html=1;strokeColor=#545B64;strokeWidth=2;endFill=0;endArrow=open;startArrow=none;entryX=0;entryY=0.5;entryDx=0;entryDy=0;" edge="1" parent="1" target="e9keN2KxK9KYygScjkE0-33">
          <mxGeometry relative="1" as="geometry">
            <mxPoint x="810" y="360" as="sourcePoint"/>
            <mxPoint x="854" y="366" as="targetPoint"/>
          </mxGeometry>
        </mxCell>
        <mxCell id="e9keN2KxK9KYygScjkE0-33" value="Android" style="shape=image;html=1;verticalAlign=middle;verticalLabelPosition=middle;labelBackgroundColor=#ffffff;imageAspect=0;aspect=fixed;image=https://cdn2.iconfinder.com/data/icons/line-hero-essentials/32/Essentials_smartphone_iphone_phone-128.png;shadow=0;strokeColor=#FF0000;fillColor=#333333;gradientColor=#000000;labelPosition=right;align=left;" vertex="1" parent="1">
          <mxGeometry x="870.5" y="313" width="50" height="50" as="geometry"/>
        </mxCell>
        <mxCell id="e9keN2KxK9KYygScjkE0-34" value="iOS" style="shape=image;html=1;verticalAlign=middle;verticalLabelPosition=middle;labelBackgroundColor=#ffffff;imageAspect=0;aspect=fixed;image=https://cdn2.iconfinder.com/data/icons/line-hero-essentials/32/Essentials_smartphone_iphone_phone-128.png;shadow=0;strokeColor=#FF0000;fillColor=#333333;gradientColor=#000000;labelPosition=right;align=left;" vertex="1" parent="1">
          <mxGeometry x="870.5" y="486" width="50" height="50" as="geometry"/>
        </mxCell>
        <mxCell id="e9keN2KxK9KYygScjkE0-35" value="" style="edgeStyle=orthogonalEdgeStyle;rounded=0;orthogonalLoop=1;jettySize=auto;html=1;strokeColor=#545B64;strokeWidth=2;endFill=0;endArrow=open;startArrow=openThin;entryX=0;entryY=0.5;entryDx=0;entryDy=0;startFill=0;" edge="1" parent="1" source="UEzPUAAOIrF-is8g5C7q-1" target="e9keN2KxK9KYygScjkE0-34">
          <mxGeometry relative="1" as="geometry">
            <mxPoint x="739.963687150838" y="487" as="sourcePoint"/>
            <mxPoint x="864" y="496" as="targetPoint"/>
          </mxGeometry>
        </mxCell>
        <mxCell id="UEzPUAAOIrF-is8g5C7q-28" value="" style="edgeStyle=orthogonalEdgeStyle;rounded=0;orthogonalLoop=1;jettySize=auto;html=1;strokeColor=#545B64;strokeWidth=2;endFill=0;endArrow=open;startArrow=openThin;startFill=0;" parent="1" source="e9keN2KxK9KYygScjkE0-19" target="e9keN2KxK9KYygScjkE0-45" edge="1">
          <mxGeometry relative="1" as="geometry">
            <mxPoint x="136.41011523687575" y="514.0689655172414" as="sourcePoint"/>
            <mxPoint x="530.036312849162" y="366.9999999999998" as="targetPoint"/>
            <Array as="points">
              <mxPoint x="490" y="390"/>
              <mxPoint x="490" y="600"/>
            </Array>
          </mxGeometry>
        </mxCell>
        <mxCell id="e9keN2KxK9KYygScjkE0-36" value="" style="whiteSpace=wrap;html=1;dashed=0;fontColor=#AAB7B8;fontStyle=0;align=left;verticalAlign=top;strokeColor=#000000;fillColor=none;gradientColor=none;spacingLeft=30;" vertex="1" parent="1">
          <mxGeometry x="190" y="487" width="250" height="219" as="geometry"/>
        </mxCell>
        <mxCell id="e9keN2KxK9KYygScjkE0-37" value="" style="edgeStyle=orthogonalEdgeStyle;rounded=0;orthogonalLoop=1;jettySize=auto;html=1;strokeColor=#545B64;strokeWidth=2;endFill=0;endArrow=open;startArrow=none;" edge="1" parent="1" source="e9keN2KxK9KYygScjkE0-8" target="e9keN2KxK9KYygScjkE0-38">
          <mxGeometry relative="1" as="geometry">
            <mxPoint x="128" y="613.1666666666667" as="sourcePoint"/>
          </mxGeometry>
        </mxCell>
        <mxCell id="e9keN2KxK9KYygScjkE0-38" value="Issuer &lt;br&gt;API" style="outlineConnect=0;fontColor=#232F3E;gradientColor=none;fillColor=#000000;strokeColor=none;dashed=0;verticalLabelPosition=bottom;verticalAlign=top;align=center;html=1;fontSize=12;fontStyle=0;aspect=fixed;pointerEvents=1;shape=mxgraph.aws4.iot_analytics_channel;" vertex="1" parent="1">
          <mxGeometry x="216" y="586.4999999999998" width="60" height="72" as="geometry"/>
        </mxCell>
        <mxCell id="e9keN2KxK9KYygScjkE0-40" value="&lt;span style=&quot;text-align: left&quot;&gt;Tranwall Core Server&lt;/span&gt;&lt;br style=&quot;text-align: left&quot;&gt;&lt;span style=&quot;text-align: left&quot;&gt;VCBK PenTest VM&lt;br&gt;192.168.0.230&lt;br&gt;&lt;/span&gt;" style="outlineConnect=0;fontColor=#232F3E;gradientColor=#CCCCCC;gradientDirection=north;fillColor=#333333;strokeColor=#ffffff;dashed=0;verticalLabelPosition=middle;verticalAlign=middle;align=left;html=1;fontSize=12;fontStyle=0;aspect=fixed;shape=mxgraph.aws4.resourceIcon;resIcon=mxgraph.aws4.compute;labelPosition=right;spacing=5;spacingBottom=-6;" vertex="1" parent="1">
          <mxGeometry x="190" y="239" width="40" height="40" as="geometry"/>
        </mxCell>
        <mxCell id="e9keN2KxK9KYygScjkE0-41" value="Tranwall &lt;br&gt;Processor" style="outlineConnect=0;fontColor=#232F3E;gradientColor=#000000;gradientDirection=north;fillColor=#666666;strokeColor=#FF0000;dashed=0;verticalLabelPosition=bottom;verticalAlign=top;align=center;html=1;fontSize=12;fontStyle=0;aspect=fixed;shape=mxgraph.aws4.resourceIcon;resIcon=mxgraph.aws4.chime;shadow=0;" vertex="1" parent="1">
          <mxGeometry x="276" y="546.5" width="78" height="78" as="geometry"/>
        </mxCell>
        <mxCell id="e9keN2KxK9KYygScjkE0-42" value="Java&lt;br&gt;RMI" style="outlineConnect=0;fontColor=#232F3E;gradientColor=none;fillColor=#000000;strokeColor=none;dashed=0;verticalLabelPosition=bottom;verticalAlign=top;align=center;html=1;fontSize=12;fontStyle=0;aspect=fixed;pointerEvents=1;shape=mxgraph.aws4.iot_analytics_channel;flipV=0;flipH=1;" vertex="1" parent="1">
          <mxGeometry x="355" y="585.4999999999998" width="60" height="72" as="geometry"/>
        </mxCell>
        <mxCell id="e9keN2KxK9KYygScjkE0-44" value="" style="edgeStyle=orthogonalEdgeStyle;rounded=0;orthogonalLoop=1;jettySize=auto;html=1;strokeColor=#545B64;strokeWidth=2;endFill=0;endArrow=open;startArrow=none;entryX=0;entryY=0.5;entryDx=0;entryDy=0;" edge="1" parent="1" source="e9keN2KxK9KYygScjkE0-48" target="e9keN2KxK9KYygScjkE0-49">
          <mxGeometry relative="1" as="geometry">
            <mxPoint x="490.41011523687575" y="761.5689655172414" as="sourcePoint"/>
            <mxPoint x="854" y="613.5" as="targetPoint"/>
          </mxGeometry>
        </mxCell>
        <mxCell id="e9keN2KxK9KYygScjkE0-45" value="Java RMI" style="outlineConnect=0;fontColor=#232F3E;gradientColor=none;fillColor=#000000;strokeColor=none;dashed=0;verticalLabelPosition=bottom;verticalAlign=top;align=center;html=1;fontSize=12;fontStyle=0;aspect=fixed;pointerEvents=1;shape=mxgraph.aws4.iot_analytics_channel;" vertex="1" parent="1">
          <mxGeometry x="560" y="585.4999999999998" width="60" height="72" as="geometry"/>
        </mxCell>
        <mxCell id="e9keN2KxK9KYygScjkE0-46" value="&lt;span style=&quot;text-align: left&quot;&gt;Tranwall &lt;br&gt;Mobile Web Server&amp;nbsp;&lt;/span&gt;&lt;span style=&quot;text-align: left&quot;&gt;VM&lt;br&gt;192.168.10.230&lt;br&gt;&lt;/span&gt;" style="outlineConnect=0;fontColor=#232F3E;gradientColor=#B3B3B3;gradientDirection=north;fillColor=#333333;strokeColor=#ffffff;dashed=0;verticalLabelPosition=middle;verticalAlign=middle;align=left;html=1;fontSize=12;fontStyle=0;aspect=fixed;shape=mxgraph.aws4.resourceIcon;resIcon=mxgraph.aws4.compute;labelPosition=right;spacing=5;spacingBottom=-5;" vertex="1" parent="1">
          <mxGeometry x="536" y="487.5" width="40" height="40" as="geometry"/>
        </mxCell>
        <mxCell id="e9keN2KxK9KYygScjkE0-48" value="Web&lt;br&gt;SOAP API" style="outlineConnect=0;fontColor=#232F3E;gradientColor=none;fillColor=#000000;strokeColor=none;dashed=0;verticalLabelPosition=bottom;verticalAlign=top;align=center;html=1;fontSize=12;fontStyle=0;aspect=fixed;pointerEvents=1;shape=mxgraph.aws4.iot_analytics_channel;flipV=0;flipH=1;" vertex="1" parent="1">
          <mxGeometry x="698" y="585.4999999999998" width="60" height="72" as="geometry"/>
        </mxCell>
        <mxCell id="e9keN2KxK9KYygScjkE0-49" value="Android" style="shape=image;html=1;verticalAlign=middle;verticalLabelPosition=middle;labelBackgroundColor=#ffffff;imageAspect=0;aspect=fixed;image=https://cdn2.iconfinder.com/data/icons/line-hero-essentials/32/Essentials_smartphone_iphone_phone-128.png;shadow=0;strokeColor=#FF0000;fillColor=#333333;gradientColor=#000000;labelPosition=right;align=left;" vertex="1" parent="1">
          <mxGeometry x="979" y="416" width="50" height="50" as="geometry"/>
        </mxCell>
        <mxCell id="e9keN2KxK9KYygScjkE0-50" value="iOS" style="shape=image;html=1;verticalAlign=middle;verticalLabelPosition=middle;labelBackgroundColor=#ffffff;imageAspect=0;aspect=fixed;image=https://cdn2.iconfinder.com/data/icons/line-hero-essentials/32/Essentials_smartphone_iphone_phone-128.png;shadow=0;strokeColor=#FF0000;fillColor=#333333;gradientColor=#000000;labelPosition=right;align=left;" vertex="1" parent="1">
          <mxGeometry x="979" y="469" width="50" height="50" as="geometry"/>
        </mxCell>
        <mxCell id="e9keN2KxK9KYygScjkE0-51" value="" style="edgeStyle=orthogonalEdgeStyle;rounded=0;orthogonalLoop=1;jettySize=auto;html=1;strokeColor=#545B64;strokeWidth=2;endFill=0;endArrow=open;startArrow=openThin;entryX=0;entryY=0.5;entryDx=0;entryDy=0;startFill=0;" edge="1" parent="1" source="e9keN2KxK9KYygScjkE0-48" target="e9keN2KxK9KYygScjkE0-50">
          <mxGeometry relative="1" as="geometry">
            <mxPoint x="783.963687150838" y="623.8333333333333" as="sourcePoint"/>
            <mxPoint x="864" y="623.5" as="targetPoint"/>
          </mxGeometry>
        </mxCell>
        <mxCell id="e9keN2KxK9KYygScjkE0-52" value="" style="edgeStyle=orthogonalEdgeStyle;rounded=0;orthogonalLoop=1;jettySize=auto;html=1;strokeColor=#545B64;strokeWidth=2;endFill=0;endArrow=open;startArrow=openThin;startFill=0;" edge="1" parent="1" source="e9keN2KxK9KYygScjkE0-42" target="e9keN2KxK9KYygScjkE0-45">
          <mxGeometry relative="1" as="geometry">
            <mxPoint x="136.41011523687575" y="761.5689655172414" as="sourcePoint"/>
            <mxPoint x="500" y="613.5" as="targetPoint"/>
            <Array as="points">
              <mxPoint x="540" y="615"/>
              <mxPoint x="540" y="615"/>
            </Array>
          </mxGeometry>
        </mxCell>
        <mxCell id="e9keN2KxK9KYygScjkE0-53" value="" style="edgeStyle=orthogonalEdgeStyle;rounded=0;orthogonalLoop=1;jettySize=auto;html=1;strokeColor=#545B64;strokeWidth=2;endFill=0;endArrow=open;startArrow=openThin;startFill=0;" edge="1" parent="1" source="e9keN2KxK9KYygScjkE0-17" target="e9keN2KxK9KYygScjkE0-54">
          <mxGeometry relative="1" as="geometry">
            <mxPoint x="429.96368715083804" y="639.9999999999998" as="sourcePoint"/>
            <mxPoint x="540" y="868" as="targetPoint"/>
          </mxGeometry>
        </mxCell>
        <mxCell id="e9keN2KxK9KYygScjkE0-54" value="GTB&lt;br&gt;Mobile app &lt;br&gt;backend server&lt;br&gt;" style="outlineConnect=0;fontColor=#232F3E;gradientColor=#FF8000;gradientDirection=north;fillColor=#FFFF00;strokeColor=#ffffff;dashed=0;verticalLabelPosition=bottom;verticalAlign=middle;align=center;html=1;fontSize=12;fontStyle=0;aspect=fixed;shape=mxgraph.aws4.resourceIcon;resIcon=mxgraph.aws4.application_integration;shadow=0;spacing=5;" vertex="1" parent="1">
          <mxGeometry x="675.5" y="1070" width="78" height="78" as="geometry"/>
        </mxCell>
        <mxCell id="e9keN2KxK9KYygScjkE0-59" value="" style="edgeStyle=orthogonalEdgeStyle;rounded=0;orthogonalLoop=1;jettySize=auto;html=1;strokeColor=#545B64;strokeWidth=2;endFill=0;endArrow=open;startArrow=none;entryX=0;entryY=0.5;entryDx=0;entryDy=0;" edge="1" parent="1" target="e9keN2KxK9KYygScjkE0-60" source="e9keN2KxK9KYygScjkE0-54">
          <mxGeometry relative="1" as="geometry">
            <mxPoint x="616.463687150838" y="868.5" as="sourcePoint"/>
            <mxPoint x="730.5" y="867.5" as="targetPoint"/>
          </mxGeometry>
        </mxCell>
        <mxCell id="e9keN2KxK9KYygScjkE0-60" value="Android" style="shape=image;html=1;verticalAlign=middle;verticalLabelPosition=middle;labelBackgroundColor=#ffffff;imageAspect=0;aspect=fixed;image=https://cdn2.iconfinder.com/data/icons/line-hero-essentials/32/Essentials_smartphone_iphone_phone-128.png;shadow=0;strokeColor=#FF0000;fillColor=#333333;gradientColor=#000000;labelPosition=right;align=left;" vertex="1" parent="1">
          <mxGeometry x="820.5" y="817" width="50" height="50" as="geometry"/>
        </mxCell>
        <mxCell id="e9keN2KxK9KYygScjkE0-61" value="iOS" style="shape=image;html=1;verticalAlign=middle;verticalLabelPosition=middle;labelBackgroundColor=#ffffff;imageAspect=0;aspect=fixed;image=https://cdn2.iconfinder.com/data/icons/line-hero-essentials/32/Essentials_smartphone_iphone_phone-128.png;shadow=0;strokeColor=#FF0000;fillColor=#333333;gradientColor=#000000;labelPosition=right;align=left;" vertex="1" parent="1">
          <mxGeometry x="820.5" y="870" width="50" height="50" as="geometry"/>
        </mxCell>
        <mxCell id="e9keN2KxK9KYygScjkE0-62" value="" style="edgeStyle=orthogonalEdgeStyle;rounded=0;orthogonalLoop=1;jettySize=auto;html=1;strokeColor=#545B64;strokeWidth=2;endFill=0;endArrow=open;startArrow=openThin;entryX=0;entryY=0.5;entryDx=0;entryDy=0;startFill=0;" edge="1" parent="1" target="e9keN2KxK9KYygScjkE0-61" source="e9keN2KxK9KYygScjkE0-54">
          <mxGeometry relative="1" as="geometry">
            <mxPoint x="616.463687150838" y="868.5" as="sourcePoint"/>
            <mxPoint x="740.5" y="877.5" as="targetPoint"/>
          </mxGeometry>
        </mxCell>
        <mxCell id="e9keN2KxK9KYygScjkE0-67" value="" style="whiteSpace=wrap;html=1;dashed=0;fontColor=#AAB7B8;fontStyle=0;align=left;verticalAlign=top;strokeColor=#000000;fillColor=none;gradientColor=none;spacingLeft=30;" vertex="1" parent="1">
          <mxGeometry x="729" y="758.5" width="250" height="217" as="geometry"/>
        </mxCell>
        <mxCell id="e9keN2KxK9KYygScjkE0-68" value="&lt;span style=&quot;text-align: left&quot;&gt;GTB&lt;br&gt;Mobile users&lt;/span&gt;" style="outlineConnect=0;fontColor=#232F3E;gradientColor=#FF8000;gradientDirection=north;fillColor=#FFFF00;strokeColor=#ffffff;dashed=0;verticalLabelPosition=middle;verticalAlign=middle;align=left;html=1;fontSize=12;fontStyle=0;aspect=fixed;shape=mxgraph.aws4.resourceIcon;resIcon=mxgraph.aws4.compute;labelPosition=right;spacing=5;shadow=0;" vertex="1" parent="1">
          <mxGeometry x="730" y="759.5" width="40" height="40" as="geometry"/>
        </mxCell>
        <mxCell id="e9keN2KxK9KYygScjkE0-71" value="NIA SMS gate&lt;br&gt;192.168.10.30" style="dashed=0;outlineConnect=0;html=1;align=center;labelPosition=center;verticalLabelPosition=bottom;verticalAlign=top;shape=mxgraph.webicons.sms;fillColor=#0000CC;gradientColor=#FF6666;strokeColor=#ffffff;fontColor=#232F3E;fontStyle=0;gradientDirection=north;aspect=fixed;" vertex="1" parent="1">
          <mxGeometry x="622" y="309.5" width="78" height="78" as="geometry"/>
        </mxCell>
      </root>
    </mxGraphModel>
  </diagram>
</mxfile>
